<svg width="275" height="270" viewBox="0 0 275 270" fill="none" xmlns="http://www.w3.org/2000/svg">
    <path d="M237 118.107C219.34 124.917 194.615 142.464 237 158.179" stroke="white" stroke-width="5"/>
    <path d="M237 118.107C219.34 124.917 194.615 142.464 237 158.179" stroke="white" stroke-width="5"/>
    <path d="M236.61 117.714L87.407 141.286" stroke="white" stroke-width="5"/>
    <path d="M235.831 158.179L97.9252 179" stroke="white" stroke-width="5"/>
    <path d="M88.1861 141.679C65.9809 152.024 36.6076 173.971 96.7565 179" stroke="white" stroke-width="5"/>
    <path d="M38.7113 21.4643L88.1861 139.321L233.494 116.929L177.786 3L38.7113 21.4643Z" stroke="white" stroke-width="5"/>
    <path d="M64.8122 170.357L14.1687 38.75" stroke="white" stroke-width="5"/>
    <path d="M13 39.9286C17.0255 32.0714 28.0372 17.3786 39.88 21.4643" stroke="white" stroke-width="5"/>
    <path d="M91.6922 179L137.271 172.714" stroke="white" stroke-width="5"/>
    <path d="M27.3088 235.212C28.6701 233.541 30.441 232.705 32.6213 232.705C36.4175 232.705 38.3322 234.847 38.3654 239.13V251H35.2941V239.113C35.2831 237.818 34.9842 236.861 34.3977 236.241C33.8221 235.621 32.9201 235.312 31.6916 235.312C30.6955 235.312 29.8212 235.577 29.0686 236.108C28.316 236.64 27.7294 237.337 27.3088 238.2V251H24.2375V225.5H27.3088V235.212ZM52.3506 241.853C52.3506 240.093 52.6937 238.51 53.3799 237.104C54.0772 235.699 55.04 234.614 56.2686 233.851C57.5081 233.087 58.9193 232.705 60.502 232.705C62.9479 232.705 64.9235 233.552 66.4287 235.245C67.945 236.938 68.7031 239.191 68.7031 242.002V242.218C68.7031 243.966 68.3656 245.538 67.6904 246.933C67.0264 248.316 66.069 249.395 64.8184 250.17C63.5788 250.945 62.151 251.332 60.5352 251.332C58.1003 251.332 56.1247 250.485 54.6084 248.792C53.1032 247.099 52.3506 244.857 52.3506 242.068V241.853ZM55.4385 242.218C55.4385 244.21 55.8978 245.809 56.8164 247.016C57.7461 248.222 58.9857 248.825 60.5352 248.825C62.0957 248.825 63.3353 248.216 64.2539 246.999C65.1725 245.771 65.6318 244.055 65.6318 241.853C65.6318 239.882 65.1615 238.289 64.2207 237.071C63.291 235.843 62.0514 235.229 60.502 235.229C58.9857 235.229 57.7627 235.832 56.833 237.038C55.9033 238.244 55.4385 239.971 55.4385 242.218ZM85.6434 233.037L85.7264 235.029C87.0434 233.48 88.8198 232.705 91.0555 232.705C93.5678 232.705 95.2778 233.668 96.1854 235.594C96.783 234.73 97.5578 234.033 98.5096 233.502C99.4725 232.971 100.607 232.705 101.913 232.705C105.853 232.705 107.856 234.791 107.923 238.964V251H104.851V239.146C104.851 237.863 104.558 236.905 103.971 236.274C103.385 235.632 102.4 235.312 101.016 235.312C99.8764 235.312 98.9301 235.655 98.1775 236.341C97.4249 237.016 96.9878 237.929 96.866 239.08V251H93.7781V239.229C93.7781 236.618 92.4998 235.312 89.9432 235.312C87.9288 235.312 86.5509 236.169 85.8094 237.885V251H82.7381V233.037H85.6434ZM130.225 251.332C127.79 251.332 125.809 250.535 124.282 248.941C122.754 247.337 121.991 245.195 121.991 242.517V241.952C121.991 240.17 122.328 238.582 123.004 237.188C123.69 235.782 124.642 234.686 125.859 233.9C127.088 233.104 128.416 232.705 129.843 232.705C132.179 232.705 133.994 233.474 135.289 235.013C136.584 236.551 137.231 238.754 137.231 241.62V242.898H125.062C125.106 244.669 125.621 246.103 126.606 247.198C127.602 248.283 128.864 248.825 130.391 248.825C131.476 248.825 132.394 248.604 133.147 248.161C133.9 247.718 134.558 247.132 135.123 246.401L136.999 247.862C135.493 250.175 133.236 251.332 130.225 251.332ZM129.843 235.229C128.604 235.229 127.563 235.682 126.722 236.59C125.881 237.486 125.361 238.748 125.162 240.375H134.16V240.143C134.071 238.582 133.651 237.376 132.898 236.523C132.145 235.66 131.127 235.229 129.843 235.229ZM158.205 248.825C159.301 248.825 160.259 248.493 161.078 247.829C161.897 247.165 162.35 246.335 162.439 245.339H165.344C165.289 246.368 164.935 247.348 164.282 248.277C163.629 249.207 162.754 249.949 161.659 250.502C160.574 251.055 159.423 251.332 158.205 251.332C155.76 251.332 153.812 250.519 152.362 248.892C150.923 247.254 150.204 245.018 150.204 242.185V241.67C150.204 239.921 150.524 238.366 151.166 237.005C151.808 235.644 152.727 234.587 153.922 233.834C155.129 233.081 156.551 232.705 158.189 232.705C160.203 232.705 161.874 233.308 163.203 234.515C164.542 235.721 165.256 237.287 165.344 239.213H162.439C162.35 238.051 161.908 237.099 161.111 236.357C160.325 235.605 159.351 235.229 158.189 235.229C156.628 235.229 155.416 235.793 154.553 236.922C153.701 238.04 153.275 239.661 153.275 241.786V242.367C153.275 244.437 153.701 246.031 154.553 247.148C155.405 248.266 156.623 248.825 158.205 248.825ZM178.184 241.853C178.184 240.093 178.527 238.51 179.213 237.104C179.91 235.699 180.873 234.614 182.102 233.851C183.341 233.087 184.752 232.705 186.335 232.705C188.781 232.705 190.757 233.552 192.262 235.245C193.778 236.938 194.536 239.191 194.536 242.002V242.218C194.536 243.966 194.199 245.538 193.524 246.933C192.86 248.316 191.902 249.395 190.652 250.17C189.412 250.945 187.984 251.332 186.368 251.332C183.933 251.332 181.958 250.485 180.442 248.792C178.936 247.099 178.184 244.857 178.184 242.068V241.853ZM181.272 242.218C181.272 244.21 181.731 245.809 182.65 247.016C183.579 248.222 184.819 248.825 186.368 248.825C187.929 248.825 189.168 248.216 190.087 246.999C191.006 245.771 191.465 244.055 191.465 241.853C191.465 239.882 190.995 238.289 190.054 237.071C189.124 235.843 187.885 235.229 186.335 235.229C184.819 235.229 183.596 235.832 182.666 237.038C181.737 238.244 181.272 239.971 181.272 242.218ZM207.774 241.853C207.774 240.093 208.118 238.51 208.804 237.104C209.501 235.699 210.464 234.614 211.692 233.851C212.932 233.087 214.343 232.705 215.926 232.705C218.372 232.705 220.347 233.552 221.853 235.245C223.369 236.938 224.127 239.191 224.127 242.002V242.218C224.127 243.966 223.789 245.538 223.114 246.933C222.45 248.316 221.493 249.395 220.242 250.17C219.003 250.945 217.575 251.332 215.959 251.332C213.524 251.332 211.549 250.485 210.032 248.792C208.527 247.099 207.774 244.857 207.774 242.068V241.853ZM210.862 242.218C210.862 244.21 211.322 245.809 212.24 247.016C213.17 248.222 214.41 248.825 215.959 248.825C217.52 248.825 218.759 248.216 219.678 246.999C220.596 245.771 221.056 244.055 221.056 241.853C221.056 239.882 220.585 238.289 219.645 237.071C218.715 235.843 217.475 235.229 215.926 235.229C214.41 235.229 213.187 235.832 212.257 237.038C211.327 238.244 210.862 239.971 210.862 242.218ZM243.192 242.683L241.266 244.691V251H238.195V225.5H241.266V240.923L242.91 238.947L248.505 233.037H252.24L245.251 240.541L253.054 251H249.451L243.192 242.683Z" fill="white"/>
    <path d="M27.3088 235.212H25.3088V240.834L28.8594 236.475L27.3088 235.212ZM38.3654 239.13H40.3654V239.122L40.3654 239.114L38.3654 239.13ZM38.3654 251V253H40.3654V251H38.3654ZM35.2941 251H33.2941V253H35.2941V251ZM35.2941 239.113H37.2941V239.105L37.2941 239.096L35.2941 239.113ZM34.3977 236.241L32.9321 237.602L32.9385 237.609L32.9451 237.616L34.3977 236.241ZM27.3088 238.2L25.5108 237.324L25.3088 237.739V238.2H27.3088ZM27.3088 251V253H29.3088V251H27.3088ZM24.2375 251H22.2375V253H24.2375V251ZM24.2375 225.5V223.5H22.2375V225.5H24.2375ZM27.3088 225.5H29.3088V223.5H27.3088V225.5ZM28.8594 236.475C29.8359 235.276 31.0343 234.705 32.6213 234.705V230.705C29.8476 230.705 27.5043 231.805 25.7581 233.949L28.8594 236.475ZM32.6213 234.705C34.1432 234.705 34.9476 235.123 35.4135 235.644C35.9196 236.21 36.3509 237.258 36.3655 239.145L40.3654 239.114C40.3468 236.719 39.8041 234.554 38.3955 232.978C36.9466 231.358 34.8956 230.705 32.6213 230.705V234.705ZM36.3654 239.13V251H40.3654V239.13H36.3654ZM38.3654 249H35.2941V253H38.3654V249ZM37.2941 251V239.113H33.2941V251H37.2941ZM37.2941 239.096C37.2809 237.55 36.9267 236.004 35.8502 234.866L32.9451 237.616C33.0418 237.718 33.2853 238.086 33.2942 239.13L37.2941 239.096ZM35.8632 234.88C34.7652 233.698 33.2215 233.312 31.6916 233.312V237.312C32.6188 237.312 32.8791 237.545 32.9321 237.602L35.8632 234.88ZM31.6916 233.312C30.3178 233.312 29.033 233.685 27.9152 234.474L30.2219 237.742C30.6093 237.469 31.0732 237.312 31.6916 237.312V233.312ZM27.9152 234.474C26.8754 235.208 26.0725 236.171 25.5108 237.324L29.1068 239.076C29.3863 238.502 29.7565 238.071 30.2219 237.742L27.9152 234.474ZM25.3088 238.2V251H29.3088V238.2H25.3088ZM27.3088 249H24.2375V253H27.3088V249ZM26.2375 251V225.5H22.2375V251H26.2375ZM24.2375 227.5H27.3088V223.5H24.2375V227.5ZM25.3088 225.5V235.212H29.3088V225.5H25.3088ZM53.3799 237.104L51.5882 236.216L51.5826 236.227L53.3799 237.104ZM56.2686 233.851L55.2195 232.148L55.2127 232.152L56.2686 233.851ZM66.4287 235.245L64.9339 236.574L64.9387 236.579L66.4287 235.245ZM67.6904 246.933L65.8903 246.061L65.8874 246.067L67.6904 246.933ZM64.8184 250.17L63.7651 248.47L63.7584 248.474L64.8184 250.17ZM54.6084 248.792L53.1136 250.121L53.1184 250.126L54.6084 248.792ZM56.8164 247.016L55.2252 248.227L55.2322 248.236L56.8164 247.016ZM64.2539 246.999L65.8504 248.204L65.8556 248.197L64.2539 246.999ZM64.2207 237.071L62.6259 238.278L62.632 238.286L62.6381 238.294L64.2207 237.071ZM54.3506 241.853C54.3506 240.359 54.6402 239.082 55.1772 237.982L51.5826 236.227C50.7472 237.938 50.3506 239.827 50.3506 241.853H54.3506ZM55.1716 237.993C55.7181 236.891 56.4383 236.1 57.3244 235.549L55.2127 232.152C53.6418 233.129 52.4362 234.506 51.5882 236.216L55.1716 237.993ZM57.3176 235.553C58.2145 235.001 59.2563 234.705 60.502 234.705V230.705C58.5822 230.705 56.8018 231.173 55.2195 232.148L57.3176 235.553ZM60.502 234.705C62.4278 234.705 63.841 235.344 64.9339 236.574L67.9235 233.916C66.0061 231.759 63.468 230.705 60.502 230.705V234.705ZM64.9387 236.579C66.0537 237.824 66.7031 239.562 66.7031 242.002H70.7031C70.7031 238.82 69.8363 236.053 67.9187 233.911L64.9387 236.579ZM66.7031 242.002V242.218H70.7031V242.002H66.7031ZM66.7031 242.218C66.7031 243.704 66.4179 244.971 65.8903 246.061L69.4906 247.804C70.3133 246.105 70.7031 244.229 70.7031 242.218H66.7031ZM65.8874 246.067C65.381 247.122 64.6769 247.905 63.7651 248.47L65.8716 251.87C67.4611 250.885 68.6717 249.51 69.4935 247.798L65.8874 246.067ZM63.7584 248.474C62.8696 249.029 61.817 249.332 60.5352 249.332V253.332C62.4851 253.332 64.288 252.86 65.8784 251.866L63.7584 248.474ZM60.5352 249.332C58.6234 249.332 57.2058 248.695 56.0984 247.458L53.1184 250.126C55.0435 252.276 57.5772 253.332 60.5352 253.332V249.332ZM56.1032 247.463C54.9941 246.216 54.3506 244.486 54.3506 242.068H50.3506C50.3506 245.229 51.2122 247.982 53.1136 250.121L56.1032 247.463ZM54.3506 242.068V241.853H50.3506V242.068H54.3506ZM53.4385 242.218C53.4385 244.51 53.9687 246.577 55.2252 248.227L58.4076 245.804C57.8268 245.041 57.4385 243.91 57.4385 242.218H53.4385ZM55.2322 248.236C56.5482 249.944 58.378 250.825 60.5352 250.825V246.825C59.5934 246.825 58.944 246.5 58.4006 245.795L55.2322 248.236ZM60.5352 250.825C62.706 250.825 64.5437 249.936 65.8504 248.204L62.6574 245.794C62.1269 246.497 61.4854 246.825 60.5352 246.825V250.825ZM65.8556 248.197C67.1238 246.501 67.6318 244.305 67.6318 241.853H63.6318C63.6318 243.805 63.2212 245.04 62.6522 245.801L65.8556 248.197ZM67.6318 241.853C67.6318 239.565 67.0825 237.504 65.8033 235.848L62.6381 238.294C63.2405 239.074 63.6318 240.2 63.6318 241.853H67.6318ZM65.8155 235.864C64.5052 234.133 62.6737 233.229 60.502 233.229V237.229C61.4292 237.229 62.0768 237.553 62.6259 238.278L65.8155 235.864ZM60.502 233.229C58.3621 233.229 56.5552 234.122 55.2488 235.817L58.4172 238.259C58.9702 237.541 59.6092 237.229 60.502 237.229V233.229ZM55.2488 235.817C53.9481 237.505 53.4385 239.731 53.4385 242.218H57.4385C57.4385 240.211 57.8586 238.984 58.4172 238.259L55.2488 235.817ZM85.6434 233.037L87.6416 232.954L87.5618 231.037H85.6434V233.037ZM85.7264 235.029L83.7281 235.113L83.9408 240.218L87.2503 236.325L85.7264 235.029ZM96.1854 235.594L94.3762 236.446L95.8551 239.584L97.8297 236.732L96.1854 235.594ZM98.5096 233.502L97.5434 231.751L97.5348 231.756L98.5096 233.502ZM107.923 238.964H109.923V238.948L109.922 238.932L107.923 238.964ZM107.923 251V253H109.923V251H107.923ZM104.851 251H102.851V253H104.851V251ZM103.971 236.274L102.495 237.624L102.501 237.63L102.507 237.636L103.971 236.274ZM98.1775 236.341L99.5131 237.83L99.5191 237.824L99.5251 237.819L98.1775 236.341ZM96.866 239.08L94.8771 238.87L94.866 238.975V239.08H96.866ZM96.866 251V253H98.866V251H96.866ZM93.7781 251H91.7781V253H93.7781V251ZM85.8094 237.885L83.9735 237.091L83.8094 237.471V237.885H85.8094ZM85.8094 251V253H87.8094V251H85.8094ZM82.7381 251H80.7381V253H82.7381V251ZM82.7381 233.037V231.037H80.7381V233.037H82.7381ZM83.6451 233.12L83.7281 235.113L87.7246 234.946L87.6416 232.954L83.6451 233.12ZM87.2503 236.325C88.1467 235.27 89.3407 234.705 91.0555 234.705V230.705C88.2989 230.705 85.9402 231.69 84.2025 233.734L87.2503 236.325ZM91.0555 234.705C92.0621 234.705 92.7581 234.898 93.2409 235.17C93.7033 235.43 94.0835 235.825 94.3762 236.446L97.9945 234.741C97.3796 233.436 96.4511 232.387 95.2035 231.685C93.9764 230.994 92.5612 230.705 91.0555 230.705V234.705ZM97.8297 236.732C98.2468 236.13 98.7887 235.637 99.4843 235.248L97.5348 231.756C96.3268 232.43 95.3192 233.331 94.541 234.455L97.8297 236.732ZM99.4757 235.253C100.092 234.913 100.881 234.705 101.913 234.705V230.705C100.332 230.705 98.8531 231.028 97.5434 231.751L99.4757 235.253ZM101.913 234.705C103.542 234.705 104.424 235.131 104.928 235.655C105.451 236.2 105.894 237.193 105.923 238.996L109.922 238.932C109.885 236.563 109.293 234.426 107.813 232.885C106.313 231.323 104.224 230.705 101.913 230.705V234.705ZM105.923 238.964V251H109.923V238.964H105.923ZM107.923 249H104.851V253H107.923V249ZM106.851 251V239.146H102.851V251H106.851ZM106.851 239.146C106.851 237.6 106.503 236.059 105.436 234.913L102.507 237.636C102.614 237.751 102.851 238.125 102.851 239.146H106.851ZM105.448 234.925C104.308 233.678 102.637 233.312 101.016 233.312V237.312C102.163 237.312 102.462 237.587 102.495 237.624L105.448 234.925ZM101.016 233.312C99.442 233.312 97.9958 233.8 96.83 234.863L99.5251 237.819C99.8645 237.509 100.311 237.312 101.016 237.312V233.312ZM96.842 234.852C95.6676 235.906 95.0429 237.303 94.8771 238.87L98.8549 239.29C98.9327 238.555 99.1823 238.126 99.5131 237.83L96.842 234.852ZM94.866 239.08V251H98.866V239.08H94.866ZM96.866 249H93.7781V253H96.866V249ZM95.7781 251V239.229H91.7781V251H95.7781ZM95.7781 239.229C95.7781 237.626 95.3857 236.054 94.2487 234.892C93.1038 233.722 91.5408 233.312 89.9432 233.312V237.312C90.9022 237.312 91.2566 237.554 91.3901 237.69C91.5314 237.834 91.7781 238.221 91.7781 239.229H95.7781ZM89.9432 233.312C88.6522 233.312 87.4166 233.588 86.342 234.257C85.2571 234.932 84.4806 235.918 83.9735 237.091L87.6452 238.678C87.8797 238.136 88.1629 237.835 88.4559 237.653C88.7592 237.464 89.2198 237.312 89.9432 237.312V233.312ZM83.8094 237.885V251H87.8094V237.885H83.8094ZM85.8094 249H82.7381V253H85.8094V249ZM84.7381 251V233.037H80.7381V251H84.7381ZM82.7381 235.037H85.6434V231.037H82.7381V235.037ZM124.282 248.941L122.833 250.32L122.838 250.325L124.282 248.941ZM123.004 237.188L121.206 236.31L121.203 236.316L123.004 237.188ZM125.859 233.9L126.944 235.581L126.947 235.578L125.859 233.9ZM135.289 235.013L133.759 236.301L135.289 235.013ZM137.231 242.898V244.898H139.231V242.898H137.231ZM125.062 242.898V240.898H123.011L123.063 242.948L125.062 242.898ZM126.606 247.198L125.119 248.535L125.126 248.543L125.133 248.551L126.606 247.198ZM135.123 246.401L136.352 244.823L134.768 243.59L133.54 245.178L135.123 246.401ZM136.999 247.862L138.675 248.953L139.677 247.413L138.227 246.284L136.999 247.862ZM126.722 236.59L128.181 237.958L128.189 237.949L126.722 236.59ZM125.162 240.375L123.177 240.132L122.902 242.375H125.162V240.375ZM134.16 240.375V242.375H136.16V240.375H134.16ZM134.16 240.143H136.16V240.086L136.157 240.029L134.16 240.143ZM132.898 236.523L131.39 237.838L131.399 237.847L132.898 236.523ZM130.225 249.332C128.273 249.332 126.835 248.715 125.726 247.558L122.838 250.325C124.783 252.355 127.307 253.332 130.225 253.332V249.332ZM125.731 247.563C124.628 246.405 123.991 244.795 123.991 242.517H119.991C119.991 245.595 120.881 248.269 122.833 250.32L125.731 247.563ZM123.991 242.517V241.952H119.991V242.517H123.991ZM123.991 241.952C123.991 240.427 124.278 239.144 124.804 238.059L121.203 236.316C120.378 238.02 119.991 239.914 119.991 241.952H123.991ZM124.801 238.065C125.34 236.96 126.057 236.153 126.944 235.581L124.774 232.22C123.226 233.219 122.039 234.604 121.206 236.31L124.801 238.065ZM126.947 235.578C127.861 234.986 128.812 234.705 129.843 234.705V230.705C128.019 230.705 126.314 231.221 124.771 232.222L126.947 235.578ZM129.843 234.705C131.694 234.705 132.907 235.289 133.759 236.301L136.819 233.725C135.081 231.66 132.663 230.705 129.843 230.705V234.705ZM133.759 236.301C134.643 237.352 135.231 239.028 135.231 241.62H139.231C139.231 238.48 138.524 235.75 136.819 233.725L133.759 236.301ZM135.231 241.62V242.898H139.231V241.62H135.231ZM137.231 240.898H125.062V244.898H137.231V240.898ZM123.063 242.948C123.116 245.095 123.754 247.017 125.119 248.535L128.093 245.861C127.488 245.188 127.096 244.244 127.061 242.848L123.063 242.948ZM125.133 248.551C126.523 250.065 128.327 250.825 130.391 250.825V246.825C129.4 246.825 128.681 246.501 128.079 245.845L125.133 248.551ZM130.391 250.825C131.747 250.825 133.035 250.547 134.161 249.885L132.133 246.437C131.754 246.66 131.205 246.825 130.391 246.825V250.825ZM134.161 249.885C135.146 249.306 135.994 248.545 136.705 247.624L133.54 245.178C133.122 245.719 132.654 246.131 132.133 246.437L134.161 249.885ZM133.894 247.979L135.77 249.44L138.227 246.284L136.352 244.823L133.894 247.979ZM135.322 246.771C134.224 248.459 132.632 249.332 130.225 249.332V253.332C133.839 253.332 136.763 251.892 138.675 248.953L135.322 246.771ZM129.843 233.229C128.048 233.229 126.476 233.914 125.255 235.23L128.189 237.949C128.651 237.451 129.159 237.229 129.843 237.229V233.229ZM125.264 235.221C124.049 236.516 123.41 238.223 123.177 240.132L127.147 240.618C127.312 239.274 127.713 238.457 128.181 237.958L125.264 235.221ZM125.162 242.375H134.16V238.375H125.162V242.375ZM136.16 240.375V240.143H132.16V240.375H136.16ZM136.157 240.029C136.052 238.187 135.541 236.494 134.397 235.2L131.399 237.847C131.761 238.257 132.09 238.977 132.163 240.256L136.157 240.029ZM134.406 235.209C133.225 233.855 131.627 233.229 129.843 233.229V237.229C130.627 237.229 131.066 237.466 131.391 237.838L134.406 235.209ZM162.439 245.339V243.339H160.609L160.447 245.162L162.439 245.339ZM165.344 245.339L167.341 245.446L167.455 243.339H165.344V245.339ZM161.659 250.502L160.757 248.717L160.75 248.72L161.659 250.502ZM152.362 248.892L150.859 250.211L150.864 250.217L150.869 250.222L152.362 248.892ZM153.922 233.834L152.864 232.137L152.857 232.142L153.922 233.834ZM163.203 234.515L161.858 235.995L161.864 236.001L163.203 234.515ZM165.344 239.213V241.213H167.438L167.342 239.121L165.344 239.213ZM162.439 239.213L160.445 239.365L160.585 241.213H162.439V239.213ZM161.111 236.357L159.727 237.802L159.738 237.812L159.748 237.822L161.111 236.357ZM154.553 236.922L152.964 235.707L152.963 235.709L154.553 236.922ZM158.205 250.825C159.74 250.825 161.147 250.348 162.337 249.383L159.818 246.276C159.37 246.639 158.862 246.825 158.205 246.825V250.825ZM162.337 249.383C163.551 248.398 164.292 247.083 164.431 245.516L160.447 245.162C160.409 245.587 160.242 245.932 159.818 246.276L162.337 249.383ZM162.439 247.339H165.344V243.339H162.439V247.339ZM163.347 245.231C163.314 245.849 163.105 246.472 162.645 247.128L165.918 249.427C166.764 248.223 167.264 246.888 167.341 245.446L163.347 245.231ZM162.645 247.128C162.196 247.767 161.583 248.299 160.757 248.717L162.56 252.287C163.925 251.598 165.061 250.647 165.918 249.427L162.645 247.128ZM160.75 248.72C159.946 249.13 159.107 249.332 158.205 249.332V253.332C159.739 253.332 161.201 252.98 162.568 252.283L160.75 248.72ZM158.205 249.332C156.252 249.332 154.876 248.707 153.855 247.561L150.869 250.222C152.747 252.33 155.267 253.332 158.205 253.332V249.332ZM153.864 247.572C152.832 246.397 152.204 244.681 152.204 242.185H148.204C148.204 245.355 149.014 248.11 150.859 250.211L153.864 247.572ZM152.204 242.185V241.67H148.204V242.185H152.204ZM152.204 241.67C152.204 240.169 152.478 238.913 152.975 237.858L149.357 236.152C148.571 237.82 148.204 239.674 148.204 241.67H152.204ZM152.975 237.858C153.466 236.818 154.137 236.062 154.988 235.526L152.857 232.142C151.317 233.111 150.151 234.469 149.357 236.152L152.975 237.858ZM154.981 235.531C155.824 235.005 156.867 234.705 158.189 234.705V230.705C156.235 230.705 154.434 231.158 152.864 232.137L154.981 235.531ZM158.189 234.705C159.772 234.705 160.944 235.165 161.858 235.995L164.547 233.034C162.805 231.452 160.635 230.705 158.189 230.705V234.705ZM161.864 236.001C162.776 236.822 163.28 237.872 163.346 239.305L167.342 239.121C167.231 236.702 166.307 234.62 164.541 233.029L161.864 236.001ZM165.344 237.213H162.439V241.213H165.344V237.213ZM164.433 239.061C164.309 237.436 163.666 236.003 162.473 234.893L159.748 237.822C160.15 238.195 160.391 238.665 160.445 239.365L164.433 239.061ZM162.494 234.913C161.309 233.778 159.828 233.229 158.189 233.229V237.229C158.874 237.229 159.341 237.432 159.727 237.802L162.494 234.913ZM158.189 233.229C156.076 233.229 154.247 234.03 152.964 235.707L156.142 238.137C156.586 237.556 157.181 237.229 158.189 237.229V233.229ZM152.963 235.709C151.74 237.314 151.275 239.436 151.275 241.786H155.275C155.275 239.886 155.662 238.766 156.144 238.134L152.963 235.709ZM151.275 241.786V242.367H155.275V241.786H151.275ZM151.275 242.367C151.275 244.676 151.745 246.764 152.963 248.361L156.144 245.936C155.656 245.297 155.275 244.197 155.275 242.367H151.275ZM152.963 248.361C154.244 250.042 156.089 250.825 158.205 250.825V246.825C157.157 246.825 156.566 246.49 156.144 245.936L152.963 248.361ZM179.213 237.104L177.421 236.216L177.416 236.227L179.213 237.104ZM182.102 233.851L181.053 232.148L181.046 232.152L182.102 233.851ZM192.262 235.245L190.767 236.574L190.772 236.579L192.262 235.245ZM193.524 246.933L191.723 246.061L191.721 246.067L193.524 246.933ZM190.652 250.17L189.598 248.47L189.592 248.474L190.652 250.17ZM180.442 248.792L178.947 250.121L178.952 250.126L180.442 248.792ZM182.65 247.016L181.058 248.227L181.065 248.236L182.65 247.016ZM190.087 246.999L191.684 248.204L191.689 248.197L190.087 246.999ZM190.054 237.071L188.459 238.278L188.465 238.286L188.471 238.294L190.054 237.071ZM180.184 241.853C180.184 240.359 180.473 239.082 181.01 237.982L177.416 236.227C176.58 237.938 176.184 239.827 176.184 241.853H180.184ZM181.005 237.993C181.551 236.891 182.272 236.1 183.158 235.549L181.046 232.152C179.475 233.129 178.269 234.506 177.421 236.216L181.005 237.993ZM183.151 235.553C184.048 235.001 185.09 234.705 186.335 234.705V230.705C184.415 230.705 182.635 231.173 181.053 232.148L183.151 235.553ZM186.335 234.705C188.261 234.705 189.674 235.344 190.767 236.574L193.757 233.916C191.839 231.759 189.301 230.705 186.335 230.705V234.705ZM190.772 236.579C191.887 237.824 192.536 239.562 192.536 242.002H196.536C196.536 238.82 195.67 236.053 193.752 233.911L190.772 236.579ZM192.536 242.002V242.218H196.536V242.002H192.536ZM192.536 242.218C192.536 243.704 192.251 244.971 191.723 246.061L195.324 247.804C196.146 246.105 196.536 244.229 196.536 242.218H192.536ZM191.721 246.067C191.214 247.122 190.51 247.905 189.598 248.47L191.705 251.87C193.294 250.885 194.505 249.51 195.327 247.798L191.721 246.067ZM189.592 248.474C188.703 249.029 187.65 249.332 186.368 249.332V253.332C188.318 253.332 190.121 252.86 191.712 251.866L189.592 248.474ZM186.368 249.332C184.457 249.332 183.039 248.695 181.932 247.458L178.952 250.126C180.877 252.276 183.41 253.332 186.368 253.332V249.332ZM181.936 247.463C180.827 246.216 180.184 244.486 180.184 242.068H176.184C176.184 245.229 177.045 247.982 178.947 250.121L181.936 247.463ZM180.184 242.068V241.853H176.184V242.068H180.184ZM179.272 242.218C179.272 244.51 179.802 246.577 181.058 248.227L184.241 245.804C183.66 245.041 183.272 243.91 183.272 242.218H179.272ZM181.065 248.236C182.381 249.944 184.211 250.825 186.368 250.825V246.825C185.427 246.825 184.777 246.5 184.234 245.795L181.065 248.236ZM186.368 250.825C188.539 250.825 190.377 249.936 191.684 248.204L188.491 245.794C187.96 246.497 187.319 246.825 186.368 246.825V250.825ZM191.689 248.197C192.957 246.501 193.465 244.305 193.465 241.853H189.465C189.465 243.805 189.054 245.04 188.485 245.801L191.689 248.197ZM193.465 241.853C193.465 239.565 192.916 237.504 191.636 235.848L188.471 238.294C189.074 239.074 189.465 240.2 189.465 241.853H193.465ZM191.649 235.864C190.338 234.133 188.507 233.229 186.335 233.229V237.229C187.262 237.229 187.91 237.553 188.459 238.278L191.649 235.864ZM186.335 233.229C184.195 233.229 182.388 234.122 181.082 235.817L184.25 238.259C184.803 237.541 185.442 237.229 186.335 237.229V233.229ZM181.082 235.817C179.781 237.505 179.272 239.731 179.272 242.218H183.272C183.272 240.211 183.692 238.984 184.25 238.259L181.082 235.817ZM208.804 237.104L207.012 236.216L207.006 236.227L208.804 237.104ZM211.692 233.851L210.643 232.148L210.637 232.152L211.692 233.851ZM221.853 235.245L220.358 236.574L220.363 236.579L221.853 235.245ZM223.114 246.933L221.314 246.061L221.311 246.067L223.114 246.933ZM220.242 250.17L219.189 248.47L219.182 248.474L220.242 250.17ZM210.032 248.792L208.537 250.121L208.542 250.126L210.032 248.792ZM212.24 247.016L210.649 248.227L210.656 248.236L212.24 247.016ZM219.678 246.999L221.274 248.204L221.279 248.197L219.678 246.999ZM219.645 237.071L218.05 238.278L218.056 238.286L218.062 238.294L219.645 237.071ZM209.774 241.853C209.774 240.359 210.064 239.082 210.601 237.982L207.006 236.227C206.171 237.938 205.774 239.827 205.774 241.853H209.774ZM210.595 237.993C211.142 236.891 211.862 236.1 212.748 235.549L210.637 232.152C209.066 233.129 207.86 234.506 207.012 236.216L210.595 237.993ZM212.741 235.553C213.638 235.001 214.68 234.705 215.926 234.705V230.705C214.006 230.705 212.226 231.173 210.643 232.148L212.741 235.553ZM215.926 234.705C217.852 234.705 219.265 235.344 220.358 236.574L223.347 233.916C221.43 231.759 218.892 230.705 215.926 230.705V234.705ZM220.363 236.579C221.477 237.824 222.127 239.562 222.127 242.002H226.127C226.127 238.82 225.26 236.053 223.343 233.911L220.363 236.579ZM222.127 242.002V242.218H226.127V242.002H222.127ZM222.127 242.218C222.127 243.704 221.842 244.971 221.314 246.061L224.914 247.804C225.737 246.105 226.127 244.229 226.127 242.218H222.127ZM221.311 246.067C220.805 247.122 220.101 247.905 219.189 248.47L221.295 251.87C222.885 250.885 224.096 249.51 224.917 247.798L221.311 246.067ZM219.182 248.474C218.293 249.029 217.241 249.332 215.959 249.332V253.332C217.909 253.332 219.712 252.86 221.302 251.866L219.182 248.474ZM215.959 249.332C214.047 249.332 212.63 248.695 211.522 247.458L208.542 250.126C210.467 252.276 213.001 253.332 215.959 253.332V249.332ZM211.527 247.463C210.418 246.216 209.774 244.486 209.774 242.068H205.774C205.774 245.229 206.636 247.982 208.537 250.121L211.527 247.463ZM209.774 242.068V241.853H205.774V242.068H209.774ZM208.862 242.218C208.862 244.51 209.393 246.577 210.649 248.227L213.831 245.804C213.251 245.041 212.862 243.91 212.862 242.218H208.862ZM210.656 248.236C211.972 249.944 213.802 250.825 215.959 250.825V246.825C215.017 246.825 214.368 246.5 213.824 245.795L210.656 248.236ZM215.959 250.825C218.13 250.825 219.967 249.936 221.274 248.204L218.081 245.794C217.551 246.497 216.909 246.825 215.959 246.825V250.825ZM221.279 248.197C222.548 246.501 223.056 244.305 223.056 241.853H219.056C219.056 243.805 218.645 245.04 218.076 245.801L221.279 248.197ZM223.056 241.853C223.056 239.565 222.506 237.504 221.227 235.848L218.062 238.294C218.664 239.074 219.056 240.2 219.056 241.853H223.056ZM221.239 235.864C219.929 234.133 218.098 233.229 215.926 233.229V237.229C216.853 237.229 217.501 237.553 218.05 238.278L221.239 235.864ZM215.926 233.229C213.786 233.229 211.979 234.122 210.673 235.817L213.841 238.259C214.394 237.541 215.033 237.229 215.926 237.229V233.229ZM210.673 235.817C209.372 237.505 208.862 239.731 208.862 242.218H212.862C212.862 240.211 213.282 238.984 213.841 238.259L210.673 235.817ZM243.192 242.683L244.79 241.48L243.376 239.601L241.748 241.299L243.192 242.683ZM241.266 244.691L239.823 243.307L239.266 243.888V244.691H241.266ZM241.266 251V253H243.266V251H241.266ZM238.195 251H236.195V253H238.195V251ZM238.195 225.5V223.5H236.195V225.5H238.195ZM241.266 225.5H243.266V223.5H241.266V225.5ZM241.266 240.923H239.266V246.454L242.804 242.202L241.266 240.923ZM242.91 238.947L241.458 237.572L241.413 237.619L241.372 237.668L242.91 238.947ZM248.505 233.037V231.037H247.644L247.052 231.662L248.505 233.037ZM252.24 233.037L253.704 234.4L256.836 231.037H252.24V233.037ZM245.251 240.541L243.787 239.178L242.65 240.399L243.648 241.737L245.251 240.541ZM253.054 251V253H257.041L254.657 249.804L253.054 251ZM249.451 251L247.853 252.203L248.453 253H249.451V251ZM241.748 241.299L239.823 243.307L242.71 246.075L244.636 244.067L241.748 241.299ZM239.266 244.691V251H243.266V244.691H239.266ZM241.266 249H238.195V253H241.266V249ZM240.195 251V225.5H236.195V251H240.195ZM238.195 227.5H241.266V223.5H238.195V227.5ZM239.266 225.5V240.923H243.266V225.5H239.266ZM242.804 242.202L244.447 240.226L241.372 237.668L239.729 239.644L242.804 242.202ZM244.362 240.322L249.957 234.412L247.052 231.662L241.458 237.572L244.362 240.322ZM248.505 235.037H252.24V231.037H248.505V235.037ZM250.777 231.674L243.787 239.178L246.714 241.904L253.704 234.4L250.777 231.674ZM243.648 241.737L251.45 252.196L254.657 249.804L246.854 239.345L243.648 241.737ZM253.054 249H249.451V253H253.054V249ZM251.049 249.797L244.79 241.48L241.594 243.885L247.853 252.203L251.049 249.797Z" fill="white"/>
</svg>
